# xmcd CD database file
#
# Track frame offsets:
#	150
#	11473
#	26838
#	42761
#	55671
#	69795
#	83339
#	106406
#	118448
#	130068
#	145041
#	158481
#
# Disc length: 2274 seconds
#
# Revision: 0
# Processed by: cddbd v1.5.2PL0 Copyright (c) Steve Scherf et al.
# Submitted via: CDex 1.51
#
DISCID=8c08e00c
DTITLE=The Blues Department - Na Melke'stijd
DYEAR=2008
DGENRE=Blues
TTITLE0=Roll in my sweet baby's arms
TTITLE1=That was your mother
TTITLE2=Nadine
TTITLE3=I just seen a face
TTITLE4=That's the way the world goes around
TTITLE5=Broke down and hungry
TTITLE6=He'll have to go
TTITLE7=Creep on in
TTITLE8=Blue moon of Kentucky
TTITLE9=Pay me my money down
TTITLE10=Long journey home
TTITLE11=Ome Kobus
EXTD=YEAR: 2008
EXTT0=
EXTT1=
EXTT2=
EXTT3=
EXTT4=
EXTT5=
EXTT6=
EXTT7=
EXTT8=
EXTT9=
EXTT10=
EXTT11=
PLAYORDER=
